<?xml version="1.0" standalone="no"?>
<!DOCTYPE svg PUBLIC "-//W3C//DTD SVG 20010904//EN"
 "http://www.w3.org/TR/2001/REC-SVG-20010904/DTD/svg10.dtd">
<svg version="1.0" xmlns="http://www.w3.org/2000/svg"
 width="500.000000pt" height="500.000000pt" viewBox="0 0 500.000000 500.000000"
 preserveAspectRatio="xMidYMid meet">

<g transform="translate(0.000000,500.000000) scale(0.100000,-0.100000)"
fill="#000000" stroke="none">
<path d="M1116 4063 c-22 -45 -56 -193 -56 -248 0 -68 32 -188 65 -247 14 -26
47 -70 72 -98 45 -50 45 -51 17 -44 -86 21 -160 60 -221 117 l-32 30 -11 -27
c-21 -57 -5 -159 41 -251 30 -60 112 -137 171 -159 l46 -18 -24 -46 c-40 -74
-81 -225 -108 -393 -30 -183 -54 -268 -104 -363 -40 -76 -114 -164 -168 -196
-40 -25 -37 -35 20 -61 58 -26 154 -25 208 2 38 19 40 20 33 2 -21 -52 -27
-96 -23 -173 8 -152 72 -274 228 -431 157 -158 356 -279 595 -362 87 -30 282
-73 291 -64 2 2 -45 35 -104 74 -293 193 -503 411 -633 656 -189 359 -207 718
-53 1046 81 172 173 277 292 334 289 136 633 -137 797 -635 24 -73 46 -126 49
-118 3 8 23 65 44 125 125 354 341 602 571 655 223 52 459 -147 564 -475 39
-121 50 -197 50 -340 0 -478 -269 -916 -767 -1247 -117 -78 -120 -81 -71 -73
474 76 932 392 1045 720 28 83 35 186 17 255 -9 30 -14 56 -13 58 2 1 19 -5
39 -13 66 -27 157 -16 220 27 33 23 34 32 5 45 -41 19 -115 92 -154 150 -69
104 -102 216 -144 483 -21 135 -62 268 -107 351 -2 4 21 18 51 33 66 32 109
80 148 162 40 86 52 244 18 244 -6 0 -28 -18 -51 -40 -46 -44 -124 -85 -183
-96 l-40 -7 46 59 c96 123 133 237 125 379 -5 92 -34 206 -53 212 -7 2 -37
-34 -68 -81 -109 -164 -253 -257 -447 -287 -84 -13 -155 -7 -329 27 -357 70
-581 70 -945 3 -88 -17 -203 -32 -255 -36 -200 -12 -390 54 -526 183 -51 48
-119 145 -134 190 -14 41 -25 43 -44 7z"/>
</g>
</svg>
